<svg xmlns="http://www.w3.org/2000/svg" xmlns:xlink="http://www.w3.org/1999/xlink" viewBox="0 0 206.9 46.7"><defs><clipPath id="a" transform="translate(0 0)"><rect x="0.3" width="36" height="39" style="fill:none"/></clipPath><radialGradient id="b" cx="18.07" cy="16.79" r="3.54" gradientUnits="userSpaceOnUse"><stop offset="0" stop-color="#2dbe60"/><stop offset="0.07" stop-color="#43c470"/><stop offset="0.24" stop-color="#78d297"/><stop offset="0.42" stop-color="#a4ddb8"/><stop offset="0.58" stop-color="#c6e6d1"/><stop offset="0.74" stop-color="#deede3"/><stop offset="0.88" stop-color="#edf1ee"/><stop offset="1" stop-color="#f2f2f2"/></radialGradient><linearGradient id="c" x1="4" y1="25.42" x2="11.32" y2="25.42" gradientTransform="translate(13.8 -10.9) rotate(7)" gradientUnits="userSpaceOnUse"><stop offset="0" stop-color="#2dbe60"/><stop offset="1" stop-color="#fff"/></linearGradient><linearGradient id="d" x1="-0.8" y1="23.22" x2="16.12" y2="23.22" xlink:href="#c"/><linearGradient id="e" x1="-5.59" y1="21.01" x2="20.91" y2="21.01" xlink:href="#c"/><linearGradient id="f" x1="12.83" y1="31.1" x2="18.25" y2="31.1" xlink:href="#c"/><linearGradient id="g" x1="-10.39" y1="18.81" x2="25.71" y2="18.81" xlink:href="#c"/><linearGradient id="h" x1="15.52" y1="33.29" x2="23.04" y2="33.29" xlink:href="#c"/><clipPath id="i" transform="translate(0 0)"><rect x="0.3" width="36" height="37" style="fill:none"/></clipPath><linearGradient id="j" x1="19.58" y1="42.52" x2="25.77" y2="42.52" xlink:href="#c"/><linearGradient id="k" x1="1.87" y1="37.21" x2="21.99" y2="37.21" xlink:href="#c"/><linearGradient id="l" x1="-7.73" y1="40.43" x2="15.15" y2="40.43" xlink:href="#c"/><linearGradient id="m" x1="-2.93" y1="39.55" x2="18.92" y2="39.55" xlink:href="#c"/></defs><title>android screen coverAsset 7</title><g style="isolation:isolate"><g style="clip-path:url(#a)"><path d="M15.8,14.1a3.2,3.2,0,0,0-.6,4.8,3.8,3.8,0,0,0,5.1.6,3.3,3.3,0,0,0,.7-4.8A4,4,0,0,0,15.8,14.1Zm3,3.6a1.2,1.2,0,0,1-1.7-.2,1.1,1.1,0,0,1,.2-1.6,1.2,1.2,0,0,1,1.7.2A1,1,0,0,1,18.8,17.7Z" transform="translate(0 0)" style="fill:url(#b)"/><path d="M29.2,30c7.9-5.7,9.3-16.2,3.1-23.5S14.8-2.1,6.9,3.6A16,16,0,0,0,3.8,27.1L20.4,46.7l5.9-4.2L9.7,22.8A9.4,9.4,0,0,1,11.5,9a11.3,11.3,0,0,1,14.9,1.7,9.4,9.4,0,0,1-1.8,13.8l-.8.6-1.3-1.6.8-.5a7.4,7.4,0,0,0,1.4-11,8.7,8.7,0,0,0-11.8-1.4,7.4,7.4,0,0,0-1.5,11L25.6,38.4l2.3,2.9,5.4-4,.3-.2.2-.2-5.4-6.4Zm.9,6.6-1.7,1.2L13.5,20.1a5.2,5.2,0,0,1,1-7.6,6,6,0,0,1,8.1,1,5,5,0,0,1-1,7.5l-.8.5a5.9,5.9,0,0,1-2.9.7l5.1,6A9,9,0,0,0,25.4,27l.8-.5A11.7,11.7,0,0,0,28.5,9.2,14,14,0,0,0,9.9,7.1,11.7,11.7,0,0,0,7.6,24.4L22.5,42.1l-1.7,1.2L5.9,25.6A13.7,13.7,0,0,1,8.6,5.5C15.3.7,25,1.8,30.2,8a13.6,13.6,0,0,1-2.6,20l-.9.6a10.1,10.1,0,0,1-2.3,1.2Z" transform="translate(0 0)" style="fill:#2dbe60"/><path d="M33.3,39h-19V37H33s.3,0,.3.1h0V39Z" transform="translate(0 0)" style="fill:#2dbe60"/><g style="mix-blend-mode:overlay"><path d="M21,14.7a3.5,3.5,0,0,1,.7,2.8,4,4,0,0,0-.8-2.3,4,4,0,0,0-5.2-.5,3.5,3.5,0,0,0-1.3,1.9,3.4,3.4,0,0,1,1.4-2.5A4,4,0,0,1,21,14.7Z" transform="translate(0 0)" style="fill:url(#c)"/><path d="M19.2,17.2a1,1,0,0,1-.4,1A1.4,1.4,0,0,1,17,18a1.1,1.1,0,0,1-.2-1.1l.3.6a1.2,1.2,0,0,0,1.7.2A1,1,0,0,0,19.2,17.2Z" transform="translate(0 0)" style="fill:#fff"/><path d="M24.7,12a6.8,6.8,0,0,1,1.7,6,7.5,7.5,0,0,0-1.7-5.5,9,9,0,0,0-11.9-1.4,8.1,8.1,0,0,0-3.2,5,7.6,7.6,0,0,1,3.3-5.5A8.7,8.7,0,0,1,24.7,12Z" transform="translate(0 0)" style="fill:url(#d)"/><path d="M31.2,18.6a12,12,0,0,0-2.7-8.8C24,4.4,15.6,3.5,9.8,7.6a11.9,11.9,0,0,0-4.9,8,11.6,11.6,0,0,1,5-8.5A14,14,0,0,1,28.5,9.2,11.8,11.8,0,0,1,31.2,18.6Z" transform="translate(0 0)" style="fill:url(#e)"/><path d="M28.6,18.3a9.7,9.7,0,0,1-4.1,6.8l-.8.5-1.3-1.5.3-.3,1.1,1.3.8-.6A9.7,9.7,0,0,0,28.6,18.3Z" transform="translate(0 0)" style="fill:url(#f)"/><path d="M36,19.1A16.3,16.3,0,0,0,32.2,7C26.1-.3,14.7-1.6,6.9,4.1A16.4,16.4,0,0,0,.1,15,16.5,16.5,0,0,1,6.9,3.6C14.8-2.1,26.2-.8,32.3,6.5A16.1,16.1,0,0,1,36,19.1Z" transform="translate(0 0)" style="fill:url(#g)"/><path d="M33.3,18.8a14.1,14.1,0,0,1-5.8,9.8l-.8.5-2,1.1-.3-.4a10.1,10.1,0,0,0,2.3-1.2l.9-.6A13.9,13.9,0,0,0,33.3,18.8Z" transform="translate(0 0)" style="fill:url(#h)"/><g style="clip-path:url(#i)"><path d="M28.7,30.9,33.8,37l-.3.2-5.2-6.1A.5.5,0,0,1,28.7,30.9Z" transform="translate(0 0)" style="fill:url(#j)"/><path d="M29.8,36.8l.2.3-1.7,1.2L13.4,20.6a5,5,0,0,1-1.1-4.2,5.2,5.2,0,0,0,1.2,3.7L28.4,37.8Z" transform="translate(0 0)" style="fill:url(#k)"/><path d="M20.8,43.3l1.4-1,.2.3-1.6,1.2L5.9,26.1A13.3,13.3,0,0,1,2.8,15.3,13.6,13.6,0,0,0,5.9,25.6Z" transform="translate(0 0)" style="fill:url(#l)"/><path d="M7.5,15.9a9.4,9.4,0,0,0,2.2,6.9L26.3,42.5l-.4.2L9.6,23.4A9.6,9.6,0,0,1,7.5,15.9Z" transform="translate(0 0)" style="fill:url(#m)"/></g></g></g><path d="M52.2,30.4a10.3,10.3,0,0,1-5.4-1.3,8.6,8.6,0,0,1-3.5-3.8,12.6,12.6,0,0,1-1.2-5.7,12.5,12.5,0,0,1,.7-4.5,8.3,8.3,0,0,1,2-3.4,7.7,7.7,0,0,1,3.1-2.2,11.8,11.8,0,0,1,4.3-.8,9.7,9.7,0,0,1,3.4.6,8.7,8.7,0,0,1,2.9,1.4,1.9,1.9,0,0,1,.6.7,2.5,2.5,0,0,1,.1.8,1.6,1.6,0,0,1-.4.7l-.7.2a1.6,1.6,0,0,1-.9-.3,10.1,10.1,0,0,0-2.3-1.2,11.2,11.2,0,0,0-2.7-.3,8,8,0,0,0-3.9.9,5.7,5.7,0,0,0-2.4,2.9,10.1,10.1,0,0,0-.8,4.5,10.6,10.6,0,0,0,.8,4.5,5.5,5.5,0,0,0,2.4,2.8,7.1,7.1,0,0,0,3.9,1,7.7,7.7,0,0,0,2.7-.4,5.5,5.5,0,0,0,2.4-1.2,1.6,1.6,0,0,1,.9-.3.7.7,0,0,1,.6.3.9.9,0,0,1,.4.6.9.9,0,0,1,0,.7,1.8,1.8,0,0,1-.5.7,7.9,7.9,0,0,1-3,1.6A10.2,10.2,0,0,1,52.2,30.4Z" transform="translate(0 0)"/><path d="M67.8,30.4a6,6,0,0,1-2.7-.6,3.8,3.8,0,0,1-1.9-1.6,3.7,3.7,0,0,1-.7-2.3,3.9,3.9,0,0,1,.8-2.5A5.3,5.3,0,0,1,66,22a33.3,33.3,0,0,1,5.2-.4h1.4v1.8H71.3l-3.7.2a3.8,3.8,0,0,0-1.9.7,2.5,2.5,0,0,0-.5,1.5,2.6,2.6,0,0,0,.8,1.9,3.4,3.4,0,0,0,2.3.8,3.6,3.6,0,0,0,2-.6,5,5,0,0,0,1.4-1.5,5.1,5.1,0,0,0,.5-2.2V20.8a4.3,4.3,0,0,0-.7-2.6,3.4,3.4,0,0,0-2.5-.8l-2,.3a11.9,11.9,0,0,0-2.2.8,1.3,1.3,0,0,1-.8.2,1,1,0,0,1-.5-.4,1.4,1.4,0,0,1-.2-.6,1.5,1.5,0,0,1,.1-.7,1,1,0,0,1,.6-.5l2.6-.9,2.5-.3a7.3,7.3,0,0,1,3.2.6,3.9,3.9,0,0,1,1.9,1.9,7.3,7.3,0,0,1,.6,3.2v8a1.5,1.5,0,0,1-.3,1,1.1,1.1,0,0,1-1,.4,1,1,0,0,1-.9-.4,1.5,1.5,0,0,1-.4-1V26.8h.3a3.7,3.7,0,0,1-.9,2A4.8,4.8,0,0,1,70,30,5.4,5.4,0,0,1,67.8,30.4Z" transform="translate(0 0)"/><path d="M81.4,30.4a1.2,1.2,0,0,1-1-.4,1.5,1.5,0,0,1-.4-1V16.7a1.4,1.4,0,0,1,1.4-1.4,1.8,1.8,0,0,1,1,.4,1.5,1.5,0,0,1,.3,1v2.6l-.3-.6a5.2,5.2,0,0,1,1.8-2.5,5.4,5.4,0,0,1,3.1-.9,4.9,4.9,0,0,1,3,.9,5.1,5.1,0,0,1,1.5,2.7h-.4a5.2,5.2,0,0,1,1.9-2.7,5.8,5.8,0,0,1,3.3-.9,5.4,5.4,0,0,1,2.7.6,4.9,4.9,0,0,1,1.6,1.9,8.2,8.2,0,0,1,.5,3.3V29a1.5,1.5,0,0,1-.3,1,1.3,1.3,0,0,1-1,.4,1.1,1.1,0,0,1-1-.4,1.2,1.2,0,0,1-.4-1V21.2a4.3,4.3,0,0,0-.7-2.8,2.4,2.4,0,0,0-2.2-.9,3.4,3.4,0,0,0-2.7,1.2,4.7,4.7,0,0,0-1,3.2V29a1.5,1.5,0,0,1-.3,1,1.3,1.3,0,0,1-1,.4,1.4,1.4,0,0,1-1.1-.4,1.5,1.5,0,0,1-.3-1V21.2a4.3,4.3,0,0,0-.7-2.8,2.5,2.5,0,0,0-2.2-.9,3.3,3.3,0,0,0-2.7,1.2,4.7,4.7,0,0,0-1,3.2V29A1.3,1.3,0,0,1,81.4,30.4Z" transform="translate(0 0)"/><path d="M108,35.8a1.3,1.3,0,0,1-1-.4,1.5,1.5,0,0,1-.3-1V16.7a1.5,1.5,0,0,1,.3-1,1.8,1.8,0,0,1,1-.4,1.3,1.3,0,0,1,1,.4,1.2,1.2,0,0,1,.4,1v2.8l-.3-.6a4.4,4.4,0,0,1,1.8-2.6,5.7,5.7,0,0,1,3.4-1,6.2,6.2,0,0,1,3.4.9,6.5,6.5,0,0,1,2.3,2.6,9.8,9.8,0,0,1,.8,4,10.3,10.3,0,0,1-.8,4.1,5.8,5.8,0,0,1-2.3,2.6,6.2,6.2,0,0,1-3.4.9,5.2,5.2,0,0,1-3.3-1,4.2,4.2,0,0,1-1.9-2.6h.3v7.6a1.5,1.5,0,0,1-.3,1A1.4,1.4,0,0,1,108,35.8Zm5.7-7.5a3.7,3.7,0,0,0,2.3-.7,4.5,4.5,0,0,0,1.5-1.8,8.5,8.5,0,0,0,.5-3,6.6,6.6,0,0,0-1.1-4,4.2,4.2,0,0,0-3.2-1.4,3.7,3.7,0,0,0-2.3.7,4.5,4.5,0,0,0-1.5,1.8,8.4,8.4,0,0,0-.5,2.9,6.3,6.3,0,0,0,1.2,4.1A3.8,3.8,0,0,0,113.7,28.3Z" transform="translate(0 0)"/><path d="M130.4,30.4a6.7,6.7,0,0,1-3-.6,4.2,4.2,0,0,1-1.7-2,7.3,7.3,0,0,1-.6-3.2V16.7a1.5,1.5,0,0,1,.3-1,1.8,1.8,0,0,1,1.1-.4,1.8,1.8,0,0,1,1,.4,1.5,1.5,0,0,1,.3,1v7.9a4.1,4.1,0,0,0,.8,2.7,3,3,0,0,0,2.4.9,3.8,3.8,0,0,0,2.9-1.2,4.6,4.6,0,0,0,1.1-3.2V16.7a1.5,1.5,0,0,1,.3-1,1.8,1.8,0,0,1,1.1-.4,1.8,1.8,0,0,1,1,.4,1.5,1.5,0,0,1,.3,1V29c0,.9-.4,1.4-1.3,1.4a1.2,1.2,0,0,1-1-.4,1.5,1.5,0,0,1-.3-1V26.4l.4.5a5.2,5.2,0,0,1-2,2.6A5.4,5.4,0,0,1,130.4,30.4Z" transform="translate(0 0)"/><path d="M148,30.4a12.4,12.4,0,0,1-2.7-.3,8.5,8.5,0,0,1-2.6-1.1,1,1,0,0,1-.4-.5,1.3,1.3,0,0,1-.1-.6,1.4,1.4,0,0,1,.2-.6l.6-.3.6.2,2.3.9a8.3,8.3,0,0,0,2.2.3,4.4,4.4,0,0,0,2.5-.6,1.9,1.9,0,0,0,.8-1.6,1.7,1.7,0,0,0-.5-1.3,5.2,5.2,0,0,0-1.8-.7l-2.8-.6a5.7,5.7,0,0,1-2.8-1.4,3.5,3.5,0,0,1-.9-2.5,3.5,3.5,0,0,1,.7-2.3,4.9,4.9,0,0,1,2.1-1.6,9.4,9.4,0,0,1,3-.5,10.1,10.1,0,0,1,2.5.3,9.1,9.1,0,0,1,2.2,1.1.7.7,0,0,1,.4.5,1.3,1.3,0,0,1,.1.6l-.3.5a.7.7,0,0,1-.6.3,1.1,1.1,0,0,1-.7-.2,4.8,4.8,0,0,0-1.8-.8,5.7,5.7,0,0,0-1.8-.3,3.3,3.3,0,0,0-2.4.7,1.8,1.8,0,0,0-.9,1.6,1.9,1.9,0,0,0,.5,1.3,3.4,3.4,0,0,0,1.6.7l2.8.6a6,6,0,0,1,2.9,1.3,3.3,3.3,0,0,1,1,2.5,3.5,3.5,0,0,1-1.6,3.2A6.9,6.9,0,0,1,148,30.4Z" transform="translate(0 0)"/><path d="M160.1,30.4a1.3,1.3,0,0,1-1-.4,1.4,1.4,0,0,1-.4-1.1V10.4a1.2,1.2,0,0,1,.4-1,1.2,1.2,0,0,1,1-.4h7.2a7.6,7.6,0,0,1,5.2,1.7,6.2,6.2,0,0,1,1.9,4.7,6.2,6.2,0,0,1-1.9,4.7,7.1,7.1,0,0,1-5.2,1.7h-5.8v7.1a1.4,1.4,0,0,1-.4,1.1A1.3,1.3,0,0,1,160.1,30.4Zm1.4-10.8h5.4a5.1,5.1,0,0,0,3.5-1.1,3.9,3.9,0,0,0,1.2-3.1,3.9,3.9,0,0,0-1.2-3.1,5,5,0,0,0-3.5-1h-5.4Z" transform="translate(0 0)" style="fill:#2dbe60"/><path d="M182.3,30.4a6.4,6.4,0,0,1-2.8-.6,4.9,4.9,0,0,1-1.9-1.6,4.4,4.4,0,0,1-.6-2.3,3.4,3.4,0,0,1,.8-2.5,4.9,4.9,0,0,1,2.7-1.4,33.3,33.3,0,0,1,5.2-.4h1.4v1.8h-1.4l-3.6.2a3.8,3.8,0,0,0-1.9.7,2.5,2.5,0,0,0-.5,1.5,2.2,2.2,0,0,0,.8,1.9,3.2,3.2,0,0,0,2.3.8,3.6,3.6,0,0,0,2-.6,5,5,0,0,0,1.4-1.5,5.1,5.1,0,0,0,.5-2.2V20.8a3.7,3.7,0,0,0-.8-2.6,3,3,0,0,0-2.4-.8l-2,.3a9.7,9.7,0,0,0-2.2.8,1.3,1.3,0,0,1-.8.2,1,1,0,0,1-.5-.4.7.7,0,0,1-.2-.6,1.5,1.5,0,0,1,.1-.7,1,1,0,0,1,.6-.5l2.6-.9,2.5-.3a7.6,7.6,0,0,1,3.2.6,3.9,3.9,0,0,1,1.9,1.9,7.3,7.3,0,0,1,.6,3.2v8a1.5,1.5,0,0,1-.3,1,1.2,1.2,0,0,1-1,.4,1,1,0,0,1-.9-.4,1.2,1.2,0,0,1-.4-1V26.8h.3a6.1,6.1,0,0,1-.9,2,4.8,4.8,0,0,1-1.6,1.2A5.4,5.4,0,0,1,182.3,30.4Z" transform="translate(0 0)" style="fill:#2dbe60"/><path d="M197.7,35.8a1.1,1.1,0,0,1-.8-.3,1,1,0,0,1-.4-.7,1.5,1.5,0,0,1,.2-.9l2-4.6v1.1l-5.6-13.2a1.5,1.5,0,0,1-.2-.9,1,1,0,0,1,.4-.7,1.5,1.5,0,0,1,1-.3,1.1,1.1,0,0,1,.8.3,1.2,1.2,0,0,1,.5.8L200.3,28h-.8l4.8-11.6a1.8,1.8,0,0,1,.6-.8,1.2,1.2,0,0,1,.9-.3,1.1,1.1,0,0,1,.8.3.9.9,0,0,1,.3.7,1,1,0,0,1-.2.9l-7.5,17.5a1.8,1.8,0,0,1-.6.8A1.4,1.4,0,0,1,197.7,35.8Z" transform="translate(0 0)" style="fill:#2dbe60"/></g></svg>